<mxfile host="app.diagrams.net" agent="Mozilla/5.0 (Macintosh; Intel Mac OS X 10_15_7) AppleWebKit/605.1.15 (KHTML, like Gecko) Version/18.1 Safari/605.1.15" version="24.7.17">
  <diagram name="Page-1" id="08Fea0Jr7iH929rYgwBY">
    <mxGraphModel grid="1" page="1" gridSize="10" guides="1" tooltips="1" connect="1" arrows="1" fold="1" pageScale="1" pageWidth="850" pageHeight="1100" math="0" shadow="0">
      <root>
        <mxCell id="0" />
        <mxCell id="1" parent="0" />
        <mxCell id="7WfZSmg8JX6mPJuI_GR1-3" value="" style="rounded=0;whiteSpace=wrap;html=1;" vertex="1" parent="1">
          <mxGeometry x="240" y="50" width="360" height="1000" as="geometry" />
        </mxCell>
        <mxCell id="JSaMLvZbIU1hZWLooHlC-17" style="rounded=0;orthogonalLoop=1;jettySize=auto;html=1;endArrow=none;endFill=0;" edge="1" parent="1" source="qjWrwiZt7pg5VePzDA7u-1" target="JSaMLvZbIU1hZWLooHlC-4">
          <mxGeometry relative="1" as="geometry">
            <mxPoint x="80" y="260" as="sourcePoint" />
            <mxPoint x="230" y="100" as="targetPoint" />
          </mxGeometry>
        </mxCell>
        <mxCell id="qjWrwiZt7pg5VePzDA7u-1" value="Player" style="shape=umlActor;verticalLabelPosition=bottom;verticalAlign=top;html=1;outlineConnect=0;" vertex="1" parent="1">
          <mxGeometry x="100" y="160" width="30" height="60" as="geometry" />
        </mxCell>
        <mxCell id="JSaMLvZbIU1hZWLooHlC-2" value="Save game" style="ellipse;whiteSpace=wrap;html=1;" vertex="1" parent="1">
          <mxGeometry x="250" y="150" width="120" height="80" as="geometry" />
        </mxCell>
        <mxCell id="JSaMLvZbIU1hZWLooHlC-4" value="Start game" style="ellipse;whiteSpace=wrap;html=1;" vertex="1" parent="1">
          <mxGeometry x="250" y="60" width="120" height="80" as="geometry" />
        </mxCell>
        <mxCell id="JSaMLvZbIU1hZWLooHlC-5" value="Pet interactions" style="ellipse;whiteSpace=wrap;html=1;" vertex="1" parent="1">
          <mxGeometry x="250" y="330" width="120" height="80" as="geometry" />
        </mxCell>
        <mxCell id="JSaMLvZbIU1hZWLooHlC-6" value="Open inventory" style="ellipse;whiteSpace=wrap;html=1;" vertex="1" parent="1">
          <mxGeometry x="250" y="240" width="120" height="80" as="geometry" />
        </mxCell>
        <mxCell id="7WfZSmg8JX6mPJuI_GR1-5" value="Parent" style="shape=umlActor;verticalLabelPosition=bottom;verticalAlign=top;html=1;outlineConnect=0;" vertex="1" parent="1">
          <mxGeometry x="100" y="570" width="30" height="60" as="geometry" />
        </mxCell>
        <mxCell id="JSaMLvZbIU1hZWLooHlC-9" value="Set time restrictions" style="ellipse;whiteSpace=wrap;html=1;" vertex="1" parent="1">
          <mxGeometry x="250" y="510" width="120" height="80" as="geometry" />
        </mxCell>
        <mxCell id="JSaMLvZbIU1hZWLooHlC-10" value="View player stats" style="ellipse;whiteSpace=wrap;html=1;" vertex="1" parent="1">
          <mxGeometry x="250" y="420" width="120" height="80" as="geometry" />
        </mxCell>
        <mxCell id="JSaMLvZbIU1hZWLooHlC-11" value="Revive pet" style="ellipse;whiteSpace=wrap;html=1;" vertex="1" parent="1">
          <mxGeometry x="250" y="600" width="120" height="80" as="geometry" />
        </mxCell>
        <mxCell id="JSaMLvZbIU1hZWLooHlC-12" value="Reset statistics" style="ellipse;whiteSpace=wrap;html=1;" vertex="1" parent="1">
          <mxGeometry x="250" y="690" width="120" height="80" as="geometry" />
        </mxCell>
        <mxCell id="JSaMLvZbIU1hZWLooHlC-13" value="System" style="rounded=0;whiteSpace=wrap;html=1;" vertex="1" parent="1">
          <mxGeometry x="630" y="870" width="120" height="60" as="geometry" />
        </mxCell>
        <mxCell id="JSaMLvZbIU1hZWLooHlC-14" value="Track pet status" style="ellipse;whiteSpace=wrap;html=1;" vertex="1" parent="1">
          <mxGeometry x="250" y="780" width="120" height="80" as="geometry" />
        </mxCell>
        <mxCell id="JSaMLvZbIU1hZWLooHlC-15" value="Provide feedback" style="ellipse;whiteSpace=wrap;html=1;" vertex="1" parent="1">
          <mxGeometry x="250" y="870" width="120" height="80" as="geometry" />
        </mxCell>
        <mxCell id="JSaMLvZbIU1hZWLooHlC-16" value="Manage commands availability" style="ellipse;whiteSpace=wrap;html=1;" vertex="1" parent="1">
          <mxGeometry x="250" y="960" width="120" height="80" as="geometry" />
        </mxCell>
        <mxCell id="JSaMLvZbIU1hZWLooHlC-18" style="rounded=0;orthogonalLoop=1;jettySize=auto;html=1;endArrow=none;endFill=0;" edge="1" parent="1" source="qjWrwiZt7pg5VePzDA7u-1" target="JSaMLvZbIU1hZWLooHlC-5">
          <mxGeometry relative="1" as="geometry">
            <mxPoint x="170" y="310" as="sourcePoint" />
            <mxPoint x="260" y="110" as="targetPoint" />
          </mxGeometry>
        </mxCell>
        <mxCell id="JSaMLvZbIU1hZWLooHlC-19" style="rounded=0;orthogonalLoop=1;jettySize=auto;html=1;endArrow=none;endFill=0;" edge="1" parent="1" source="qjWrwiZt7pg5VePzDA7u-1" target="JSaMLvZbIU1hZWLooHlC-6">
          <mxGeometry relative="1" as="geometry">
            <mxPoint x="170" y="294" as="sourcePoint" />
            <mxPoint x="260" y="200" as="targetPoint" />
          </mxGeometry>
        </mxCell>
        <mxCell id="JSaMLvZbIU1hZWLooHlC-20" style="rounded=0;orthogonalLoop=1;jettySize=auto;html=1;endArrow=none;endFill=0;" edge="1" parent="1" source="qjWrwiZt7pg5VePzDA7u-1" target="JSaMLvZbIU1hZWLooHlC-2">
          <mxGeometry relative="1" as="geometry">
            <mxPoint x="170" y="308" as="sourcePoint" />
            <mxPoint x="261" y="297" as="targetPoint" />
          </mxGeometry>
        </mxCell>
        <mxCell id="JSaMLvZbIU1hZWLooHlC-21" style="rounded=0;orthogonalLoop=1;jettySize=auto;html=1;endArrow=none;endFill=0;" edge="1" parent="1" source="7WfZSmg8JX6mPJuI_GR1-5" target="JSaMLvZbIU1hZWLooHlC-10">
          <mxGeometry relative="1" as="geometry">
            <mxPoint x="180" y="318" as="sourcePoint" />
            <mxPoint x="271" y="307" as="targetPoint" />
          </mxGeometry>
        </mxCell>
        <mxCell id="JSaMLvZbIU1hZWLooHlC-22" style="rounded=0;orthogonalLoop=1;jettySize=auto;html=1;endArrow=none;endFill=0;" edge="1" parent="1" source="7WfZSmg8JX6mPJuI_GR1-5" target="JSaMLvZbIU1hZWLooHlC-9">
          <mxGeometry relative="1" as="geometry">
            <mxPoint x="190" y="328" as="sourcePoint" />
            <mxPoint x="281" y="317" as="targetPoint" />
          </mxGeometry>
        </mxCell>
        <mxCell id="JSaMLvZbIU1hZWLooHlC-23" style="rounded=0;orthogonalLoop=1;jettySize=auto;html=1;endArrow=none;endFill=0;" edge="1" parent="1" source="7WfZSmg8JX6mPJuI_GR1-5" target="JSaMLvZbIU1hZWLooHlC-11">
          <mxGeometry relative="1" as="geometry">
            <mxPoint x="170" y="569" as="sourcePoint" />
            <mxPoint x="260" y="564" as="targetPoint" />
          </mxGeometry>
        </mxCell>
        <mxCell id="JSaMLvZbIU1hZWLooHlC-24" style="rounded=0;orthogonalLoop=1;jettySize=auto;html=1;endArrow=none;endFill=0;" edge="1" parent="1" source="7WfZSmg8JX6mPJuI_GR1-5" target="JSaMLvZbIU1hZWLooHlC-12">
          <mxGeometry relative="1" as="geometry">
            <mxPoint x="180" y="579" as="sourcePoint" />
            <mxPoint x="270" y="574" as="targetPoint" />
          </mxGeometry>
        </mxCell>
        <mxCell id="JSaMLvZbIU1hZWLooHlC-26" style="rounded=0;orthogonalLoop=1;jettySize=auto;html=1;endArrow=none;endFill=0;" edge="1" parent="1" source="JSaMLvZbIU1hZWLooHlC-14" target="JSaMLvZbIU1hZWLooHlC-13">
          <mxGeometry relative="1" as="geometry">
            <mxPoint x="390" y="774" as="sourcePoint" />
            <mxPoint x="528" y="866" as="targetPoint" />
          </mxGeometry>
        </mxCell>
        <mxCell id="JSaMLvZbIU1hZWLooHlC-27" style="rounded=0;orthogonalLoop=1;jettySize=auto;html=1;endArrow=none;endFill=0;" edge="1" parent="1" source="JSaMLvZbIU1hZWLooHlC-16" target="JSaMLvZbIU1hZWLooHlC-13">
          <mxGeometry relative="1" as="geometry">
            <mxPoint x="390" y="880" as="sourcePoint" />
            <mxPoint x="528" y="972" as="targetPoint" />
          </mxGeometry>
        </mxCell>
        <mxCell id="JSaMLvZbIU1hZWLooHlC-28" style="rounded=0;orthogonalLoop=1;jettySize=auto;html=1;endArrow=none;endFill=0;" edge="1" parent="1" source="JSaMLvZbIU1hZWLooHlC-15" target="JSaMLvZbIU1hZWLooHlC-13">
          <mxGeometry relative="1" as="geometry">
            <mxPoint x="400" y="830" as="sourcePoint" />
            <mxPoint x="538" y="922" as="targetPoint" />
          </mxGeometry>
        </mxCell>
        <mxCell id="JSaMLvZbIU1hZWLooHlC-29" value="Feed pet" style="ellipse;whiteSpace=wrap;html=1;" vertex="1" parent="1">
          <mxGeometry x="460" y="110" width="120" height="80" as="geometry" />
        </mxCell>
        <mxCell id="JSaMLvZbIU1hZWLooHlC-30" value="Play with pet" style="ellipse;whiteSpace=wrap;html=1;" vertex="1" parent="1">
          <mxGeometry x="460" y="200" width="120" height="80" as="geometry" />
        </mxCell>
        <mxCell id="JSaMLvZbIU1hZWLooHlC-31" value="Give gift" style="ellipse;whiteSpace=wrap;html=1;" vertex="1" parent="1">
          <mxGeometry x="460" y="290" width="120" height="80" as="geometry" />
        </mxCell>
        <mxCell id="JSaMLvZbIU1hZWLooHlC-32" value="Put to bed" style="ellipse;whiteSpace=wrap;html=1;" vertex="1" parent="1">
          <mxGeometry x="460" y="380" width="120" height="80" as="geometry" />
        </mxCell>
        <mxCell id="JSaMLvZbIU1hZWLooHlC-33" value="Take to vet" style="ellipse;whiteSpace=wrap;html=1;" vertex="1" parent="1">
          <mxGeometry x="460" y="560" width="120" height="80" as="geometry" />
        </mxCell>
        <mxCell id="JSaMLvZbIU1hZWLooHlC-34" value="Exercise pet" style="ellipse;whiteSpace=wrap;html=1;" vertex="1" parent="1">
          <mxGeometry x="460" y="470" width="120" height="80" as="geometry" />
        </mxCell>
        <mxCell id="JSaMLvZbIU1hZWLooHlC-36" value="" style="endArrow=open;html=1;rounded=0;dashed=1;endFill=0;" edge="1" parent="1" source="JSaMLvZbIU1hZWLooHlC-5" target="JSaMLvZbIU1hZWLooHlC-29">
          <mxGeometry relative="1" as="geometry">
            <mxPoint x="250" y="390" as="sourcePoint" />
            <mxPoint x="350" y="390" as="targetPoint" />
          </mxGeometry>
        </mxCell>
        <mxCell id="JSaMLvZbIU1hZWLooHlC-37" value="&amp;lt;&amp;lt;includes&amp;gt;&amp;gt;" style="edgeLabel;resizable=0;html=1;;align=center;verticalAlign=middle;" connectable="0" vertex="1" parent="JSaMLvZbIU1hZWLooHlC-36">
          <mxGeometry relative="1" as="geometry" />
        </mxCell>
        <mxCell id="JSaMLvZbIU1hZWLooHlC-38" value="" style="endArrow=open;html=1;rounded=0;dashed=1;endFill=0;" edge="1" parent="1" source="JSaMLvZbIU1hZWLooHlC-5" target="JSaMLvZbIU1hZWLooHlC-30">
          <mxGeometry relative="1" as="geometry">
            <mxPoint x="352" y="346" as="sourcePoint" />
            <mxPoint x="498" y="194" as="targetPoint" />
          </mxGeometry>
        </mxCell>
        <mxCell id="JSaMLvZbIU1hZWLooHlC-39" value="&amp;lt;&amp;lt;includes&amp;gt;&amp;gt;" style="edgeLabel;resizable=0;html=1;;align=center;verticalAlign=middle;" connectable="0" vertex="1" parent="JSaMLvZbIU1hZWLooHlC-38">
          <mxGeometry relative="1" as="geometry" />
        </mxCell>
        <mxCell id="JSaMLvZbIU1hZWLooHlC-40" value="" style="endArrow=open;html=1;rounded=0;dashed=1;endFill=0;" edge="1" parent="1" source="JSaMLvZbIU1hZWLooHlC-5" target="JSaMLvZbIU1hZWLooHlC-31">
          <mxGeometry relative="1" as="geometry">
            <mxPoint x="362" y="356" as="sourcePoint" />
            <mxPoint x="508" y="204" as="targetPoint" />
          </mxGeometry>
        </mxCell>
        <mxCell id="JSaMLvZbIU1hZWLooHlC-41" value="&amp;lt;&amp;lt;includes&amp;gt;&amp;gt;" style="edgeLabel;resizable=0;html=1;;align=center;verticalAlign=middle;" connectable="0" vertex="1" parent="JSaMLvZbIU1hZWLooHlC-40">
          <mxGeometry relative="1" as="geometry" />
        </mxCell>
        <mxCell id="JSaMLvZbIU1hZWLooHlC-42" value="" style="endArrow=open;html=1;rounded=0;dashed=1;endFill=0;" edge="1" parent="1" source="JSaMLvZbIU1hZWLooHlC-5" target="JSaMLvZbIU1hZWLooHlC-32">
          <mxGeometry relative="1" as="geometry">
            <mxPoint x="372" y="366" as="sourcePoint" />
            <mxPoint x="518" y="214" as="targetPoint" />
          </mxGeometry>
        </mxCell>
        <mxCell id="JSaMLvZbIU1hZWLooHlC-43" value="&amp;lt;&amp;lt;includes&amp;gt;&amp;gt;" style="edgeLabel;resizable=0;html=1;;align=center;verticalAlign=middle;" connectable="0" vertex="1" parent="JSaMLvZbIU1hZWLooHlC-42">
          <mxGeometry relative="1" as="geometry" />
        </mxCell>
        <mxCell id="JSaMLvZbIU1hZWLooHlC-44" value="" style="endArrow=open;html=1;rounded=0;dashed=1;endFill=0;" edge="1" parent="1" source="JSaMLvZbIU1hZWLooHlC-5" target="JSaMLvZbIU1hZWLooHlC-34">
          <mxGeometry relative="1" as="geometry">
            <mxPoint x="382" y="376" as="sourcePoint" />
            <mxPoint x="528" y="224" as="targetPoint" />
          </mxGeometry>
        </mxCell>
        <mxCell id="JSaMLvZbIU1hZWLooHlC-45" value="&amp;lt;&amp;lt;includes&amp;gt;&amp;gt;" style="edgeLabel;resizable=0;html=1;;align=center;verticalAlign=middle;" connectable="0" vertex="1" parent="JSaMLvZbIU1hZWLooHlC-44">
          <mxGeometry relative="1" as="geometry" />
        </mxCell>
        <mxCell id="JSaMLvZbIU1hZWLooHlC-46" value="" style="endArrow=open;html=1;rounded=0;dashed=1;endFill=0;" edge="1" parent="1" source="JSaMLvZbIU1hZWLooHlC-5" target="JSaMLvZbIU1hZWLooHlC-33">
          <mxGeometry relative="1" as="geometry">
            <mxPoint x="362" y="408" as="sourcePoint" />
            <mxPoint x="488" y="492" as="targetPoint" />
          </mxGeometry>
        </mxCell>
        <mxCell id="JSaMLvZbIU1hZWLooHlC-47" value="&amp;lt;&amp;lt;extends&amp;gt;&amp;gt;" style="edgeLabel;resizable=0;html=1;;align=center;verticalAlign=middle;" connectable="0" vertex="1" parent="JSaMLvZbIU1hZWLooHlC-46">
          <mxGeometry relative="1" as="geometry" />
        </mxCell>
        <mxCell id="JSaMLvZbIU1hZWLooHlC-48" value="" style="endArrow=block;html=1;rounded=0;endFill=0;" edge="1" parent="1">
          <mxGeometry width="50" height="50" relative="1" as="geometry">
            <mxPoint x="115" y="560" as="sourcePoint" />
            <mxPoint x="115" y="250" as="targetPoint" />
          </mxGeometry>
        </mxCell>
      </root>
    </mxGraphModel>
  </diagram>
</mxfile>